<?xml version="1.0" standalone="no"?>
<!DOCTYPE svg PUBLIC "-//W3C//DTD SVG 20010904//EN"
 "http://www.w3.org/TR/2001/REC-SVG-20010904/DTD/svg10.dtd">
<svg version="1.0" xmlns="http://www.w3.org/2000/svg"
 width="256.000000pt" height="256.000000pt" viewBox="0 0 256.000000 256.000000"
 preserveAspectRatio="xMidYMid meet">

<g transform="translate(0.000000,256.000000) scale(0.100000,-0.100000)"
fill="#000000" stroke="none">
<path d="M1283 2009 c-57 -21 -103 -94 -103 -163 0 -87 81 -165 173 -166 56 0
98 17 76 31 -9 6 -10 9 -2 9 6 0 15 -5 18 -10 4 -7 16 -2 29 12 90 90 67 238
-43 284 -41 17 -44 17 -35 2 6 -10 5 -10 -7 -1 -16 13 -74 14 -106 2z m-11
-31 c-16 -16 -15 -31 1 -22 9 6 9 5 0 -8 -7 -8 -10 -17 -7 -21 3 -3 -2 -4 -11
-3 -10 1 -21 10 -26 19 -7 12 -3 19 18 30 36 19 40 20 25 5z m212 -29 c3 1 6
-1 6 -4 0 -3 0 -10 0 -16 0 -6 -7 -4 -15 5 -8 8 -15 21 -15 28 0 11 2 11 9 0
4 -8 11 -13 15 -13z m1 -120 c11 -17 -1 -21 -15 -4 -8 9 -8 15 -2 15 6 0 14
-5 17 -11z m5 -65 c0 -8 -19 -13 -24 -6 -3 5 1 9 9 9 8 0 15 -2 15 -3z m-90
-19 c33 -19 21 -19 -21 0 -19 8 -27 14 -19 14 8 0 26 -6 40 -14z m55 -6 c-4
-5 -12 -9 -18 -8 -9 0 -8 2 1 6 6 2 9 10 6 15 -4 7 -2 8 5 4 6 -4 9 -12 6 -17z
m-150 -3 c-22 -7 -34 -15 -27 -19 7 -3 8 -5 2 -3 -20 3 -12 21 12 28 42 11 54
6 13 -6z"/>
<path d="M1236 1945 c4 -8 10 -12 15 -9 11 6 2 24 -11 24 -5 0 -7 -7 -4 -15z"/>
<path d="M1757 1849 c-21 -27 -35 -55 -31 -61 5 -7 2 -9 -9 -5 -17 6 -41 -15
-29 -27 4 -4 3 -6 -3 -5 -5 2 -42 -18 -82 -44 -39 -26 -77 -47 -83 -47 -6 0
-9 -4 -6 -8 3 -5 -8 -9 -25 -9 -17 0 -36 -8 -45 -19 -8 -10 -12 -13 -8 -5 5 9
1 12 -12 7 -11 -3 -62 -10 -114 -16 -99 -11 -200 -37 -200 -51 0 -5 -3 -8 -7
-8 -28 5 -78 -35 -67 -53 4 -7 2 -8 -5 -4 -6 4 -8 13 -4 19 7 12 -16 -4 -50
-34 -17 -16 -17 -16 8 -12 14 3 25 8 25 12 0 14 164 5 190 -9 14 -8 27 -14 30
-13 3 1 6 -18 8 -42 8 -121 -166 -314 -383 -424 -44 -22 -86 -41 -94 -41 -8 0
-12 -3 -9 -6 10 -9 177 25 270 56 104 35 208 86 303 149 77 51 267 233 264
253 -3 20 12 49 22 42 5 -3 17 9 28 27 16 26 17 36 8 53 -7 11 -16 24 -21 27
-5 4 -5 12 -1 19 4 7 1 16 -6 22 -12 8 -11 9 1 5 8 -2 16 -13 18 -25 4 -24 17
-29 25 -9 4 9 6 9 6 0 1 -6 -3 -15 -9 -18 -13 -8 -13 -25 -1 -25 24 0 129 265
117 296 -3 8 -2 13 3 10 7 -5 25 64 18 71 -2 1 -20 -20 -40 -48z m-3 -56 c0
-16 -5 -29 -10 -30 -9 -2 -8 17 1 45 7 19 10 14 9 -15z m-34 -53 c0 -5 -2 -10
-4 -10 -3 0 -8 5 -11 10 -3 6 -1 10 4 10 6 0 11 -4 11 -10z m-20 -23 c0 -8 -4
-7 -12 1 -18 18 -42 -5 -26 -27 10 -13 10 -14 -2 -3 -18 15 -34 16 -24 0 5 -7
3 -8 -6 -3 -9 5 -4 14 16 30 28 22 54 23 54 2z m37 -19 c-3 -7 -5 -2 -5 12 0
14 2 19 5 13 2 -7 2 -19 0 -25z m-23 -44 c3 -8 2 -12 -4 -9 -6 3 -10 10 -10
16 0 14 7 11 14 -7z m-120 -23 c4 -5 -3 -7 -14 -4 -23 6 -26 13 -6 13 8 0 17
-4 20 -9z m-87 -7 c-3 -3 -12 -4 -19 -1 -8 3 -5 6 6 6 11 1 17 -2 13 -5z m48
-12 c-3 -3 -11 0 -18 7 -9 10 -8 11 6 5 10 -3 15 -9 12 -12z m-405 -62 c0 -5
-5 -10 -11 -10 -5 0 -7 5 -4 10 3 6 8 10 11 10 2 0 4 -4 4 -10z m34 -39 c4 -5
-3 -7 -14 -4 -23 6 -26 13 -6 13 8 0 17 -4 20 -9z m77 -8 c13 -16 12 -17 -3
-4 -10 7 -18 15 -18 17 0 8 8 3 21 -13z m-45 -12 c0 -11 -5 -17 -13 -14 -10 4
-11 9 -2 19 15 18 15 18 15 -5z m28 -7 c3 -8 2 -12 -4 -9 -6 3 -10 10 -10 16
0 14 7 11 14 -7z"/>
<path d="M970 766 c0 -9 -9 -25 -21 -37 -17 -17 -31 -20 -95 -18 -46 1 -80 -3
-87 -10 -8 -8 57 -11 262 -11 179 0 270 3 266 10 -3 6 -23 10 -43 10 -52 0
-112 18 -119 36 -3 8 -15 20 -27 26 -19 10 -20 10 -7 -6 12 -14 12 -16 -4 -10
-14 6 -16 3 -11 -14 6 -17 2 -23 -18 -28 -36 -9 -60 -1 -64 20 -2 11 -10 26
-18 34 -12 11 -14 11 -14 -2z"/>
<path d="M1522 758 c-10 -25 -28 -35 -72 -39 -32 -3 -40 2 -40 26 0 14 -5 25
-11 25 -5 0 -7 -4 -4 -10 3 -6 -1 -7 -10 -4 -14 6 -16 1 -13 -27 l3 -34 76 -3
c53 -2 79 1 86 10 14 18 26 71 14 64 -5 -3 -11 0 -14 6 -3 8 -9 1 -15 -14z"/>
<path d="M1640 761 c0 -7 -4 -9 -10 -6 -5 3 -10 1 -10 -5 0 -5 -14 -19 -32
-30 -25 -15 -29 -20 -16 -25 30 -12 62 0 78 27 12 22 12 30 2 40 -9 9 -12 9
-12 -1z"/>
<path d="M1728 751 c-7 -10 -24 -23 -37 -30 -29 -16 -15 -34 25 -29 20 2 31
11 40 35 11 26 11 32 -1 37 -8 3 -20 -3 -27 -13z"/>
<path d="M1151 596 c-1 -22 -5 -27 -19 -24 -9 3 -38 2 -62 -2 -42 -7 -41 -7
19 -7 65 1 77 8 68 44 -3 11 -5 7 -6 -11z"/>
<path d="M1182 595 c0 -16 2 -22 5 -12 2 9 2 23 0 30 -3 6 -5 -1 -5 -18z"/>
<path d="M1672 595 c0 -16 2 -22 5 -12 2 9 2 23 0 30 -3 6 -5 -1 -5 -18z"/>
<path d="M1751 598 c-1 -21 -7 -28 -28 -31 l-28 -4 28 -2 c29 -1 42 15 34 46
-3 12 -5 9 -6 -9z"/>
<path d="M732 583 c2 -14 15 -19 61 -21 50 -3 57 -1 56 15 0 10 -3 13 -6 6 -7
-19 -83 -17 -83 2 0 8 -7 15 -16 15 -9 0 -14 -7 -12 -17z"/>
<path d="M1011 588 c-1 -12 -7 -16 -18 -12 -15 5 -16 4 -3 -5 17 -12 35 1 27
21 -4 9 -6 8 -6 -4z"/>
<path d="M1245 590 c-4 -6 1 -7 11 -3 13 5 16 3 11 -10 -6 -15 4 -17 96 -14
88 2 102 5 105 20 2 11 -3 17 -15 16 -10 0 -13 -3 -5 -6 30 -12 5 -19 -77 -20
-70 -2 -90 1 -95 12 -6 17 -22 20 -31 5z"/>
<path d="M1590 586 c0 -14 -6 -17 -29 -14 -17 2 -28 1 -25 -4 9 -14 54 -9 61
7 3 9 3 19 -1 22 -3 4 -6 -2 -6 -11z"/>
<path d="M960 582 c0 -7 -15 -13 -32 -13 -32 -2 -33 -2 -4 -6 28 -5 56 11 43
24 -4 3 -7 1 -7 -5z"/>
<path d="M876 563 c-6 -14 -5 -15 5 -6 7 7 10 15 7 18 -3 3 -9 -2 -12 -12z"/>
<path d="M1488 563 c6 -2 18 -2 25 0 6 3 1 5 -13 5 -14 0 -19 -2 -12 -5z"/>
<path d="M1623 563 c9 -2 23 -2 30 0 6 3 -1 5 -18 5 -16 0 -22 -2 -12 -5z"/>
</g>
</svg>
